#!OML:ASF Y:\EmotionMaleHayes\Project 1\Capture day 1\Session 1\Male1.ASF
:FULLY-SPECIFIED
:DEGREES
724
root 8.48955 16.8765 9.3816 350.975 34.8265 353.395
lowerback 9.73766 1.47723 1.78939
upperback 3.953 2.19993 1.28454
thorax -1.33643 1.12587 0.0863561
lowerneck -17.3475 9.6066 12.9666
upperneck 29.2436 13.6926 -10.3485
head 14.6979 6.1561 -3.81853
rclavicle 8.17999e-014 -1.43125e-014
rhumerus -33.1669 -7.01752 -71.0125
rradius 30.1945
rwrist 8.26006
rhand -11.9457 -32.6011
rfingers 7.12502
rthumb 14.1093 -62.1021
lclavicle 8.17999e-014 -1.43125e-014
lhumerus -39.4482 -7.50415 86.057
lradius 22.4245
lwrist -18.6055
lhand -12.0944 -21.1419
lfingers 7.12502
lthumb 13.966 8.36899
rfemur -2.01397 -1.5343 20.0364
rtibia 17.9675
rfoot -12.9537 1.63478
rtoes 2.39696
lfemur 1.99538 2.05013 -11.1339
ltibia 61.4574
lfoot -6.73787 7.39257
ltoes 11.004
725
root 8.53162 16.8913 9.48578 350.633 35.1345 353.019
lowerback 9.85398 1.68432 2.19232
upperback 3.99214 2.51544 1.27871
thorax -1.33806 1.28759 -0.181316
lowerneck -17.2694 9.50389 12.958
upperneck 29.1524 13.5249 -10.2958
head 14.6072 6.09576 -3.83138
rclavicle 1.20762e-014 5.96354e-015
rhumerus -32.8405 -6.89788 -70.89
rradius 30.9613
rwrist 8.13946
rhand -11.9547 -32.9484
rfingers 7.12502
rthumb 14.1006 -62.45
lclavicle 1.20762e-014 5.96354e-015
lhumerus -39.8518 -7.46335 85.4393
lradius 22.4229
lwrist -18.6767
lhand -13.9427 -20.8767
lfingers 7.12502
lthumb 12.1844 8.74841
rfemur -1.21587 -1.42605 20.518
rtibia 17.6062
rfoot -13.4318 1.27696
rtoes 2.12989
lfemur 0.495908 2.62491 -10.8786
ltibia 62.2037
lfoot -7.14311 6.73705
ltoes 8.72211
726
root 8.57279 16.904 9.59054 350.46 35.5387 353.06
lowerback 9.99218 1.86133 2.16564
upperback 4.06729 2.75186 1.25247
thorax -1.33149 1.40697 -0.221857
lowerneck -17.1917 9.301 12.5773
upperneck 28.9892 13.2445 -10.0455
head 14.4154 5.97095 -3.72357
rclavicle -1.37261e-013 1.31198e-014
rhumerus -32.0405 -5.88646 -71.0633
rradius 31.1419
rwrist 7.11862
rhand -12.5971 -33.5874
rfingers 7.12502
rthumb 13.4816 -63.131
lclavicle -1.37261e-013 1.31198e-014
lhumerus -40.2452 -7.38708 84.9634
lradius 22.4541
lwrist -18.266
lhand -15.0587 -20.8
lfingers 7.12502
lthumb 11.1081 8.886
rfemur -0.290648 -1.48598 20.5282
rtibia 17.154
rfoot -13.7905 0.784662
rtoes 1.12263
lfemur -0.938391 3.17292 -11.0549
ltibia 62.7961
lfoot -7.46333 6.26127
ltoes 6.86225
727
root 8.62254 16.9157 9.69504 350.334 35.8506 353.167
lowerback 10.132 2.06581 2.14508
upperback 4.12975 3.02408 1.18186
thorax -1.33535 1.54421 -0.316369
lowerneck -17.3867 9.13969 12.3849
upperneck 29.0746 12.9737 -9.81547
head 14.4167 5.85615 -3.64893
rclavicle -4.77083e-014 2.8625e-014
rhumerus -31.1814 -5.36724 -71.0763
rradius 31.1618
rwrist 6.76962
rhand -12.9144 -33.6354
rfingers 7.12502
rthumb 13.1757 -63.1991
lclavicle -4.77083e-014 2.8625e-014
lhumerus -40.7266 -7.64446 84.6242
lradius 22.5721
lwrist -17.5406
lhand -15.0726 -20.9163
lfingers 7.12502
lthumb 11.0948 8.7704
rfemur 0.640386 -1.76303 20.3714
rtibia 16.6925
rfoot -13.9718 0.577717
rtoes 0.285122
lfemur -2.211 3.72681 -11.3729
ltibia 63.1052
lfoot -7.96021 5.87449
ltoes 6.90947
728
root 8.67365 16.9293 9.79607 350.019 36.1762 352.832
lowerback 10.2599 2.21529 2.46437
upperback 4.13613 3.25877 1.22165
thorax -1.37796 1.66396 -0.484266
lowerneck -17.5618 9.11819 12.4171
upperneck 29.2492 12.9248 -9.77358
head 14.5244 5.83866 -3.64465
rclavicle -2.3059e-014 2.22639e-014
rhumerus -30.44 -4.79727 -70.9241
rradius 31.3614
rwrist 6.82648
rhand -13.0406 -33.8368
rfingers 7.12502
rthumb 13.0541 -63.4083
lclavicle -2.3059e-014 2.22639e-014
lhumerus -41.2202 -7.79834 84.3
lradius 22.7064
lwrist -16.8895
lhand -13.3999 -21.0177
lfingers 7.12502
lthumb 12.7077 8.5757
rfemur 1.54482 -1.93473 20.6578
rtibia 16.1086
rfoot -14.1634 0.401709
rtoes 0.549034
lfemur -3.54888 4.17902 -11.3266
ltibia 63.234
lfoot -8.36799 5.6407
ltoes 7.3073
729
root 8.71906 16.9435 9.89303 349.379 36.4274 352
lowerback 10.5179 2.34936 3.0974
upperback 4.07861 3.51631 1.44197
thorax -1.54685 1.79384 -0.651992
lowerneck -17.461 9.0954 12.4378
upperneck 29.2662 12.9695 -9.93949
head 14.5336 5.84691 -3.71077
rclavicle 4.25896e-014 -1.82882e-014
rhumerus -29.802 -3.98898 -70.7314
rradius 31.6648
rwrist 6.5392
rhand -13.6869 -35.1546
rfingers 7.12502
rthumb 12.431 -64.7649
lclavicle 4.25896e-014 -1.82882e-014
lhumerus -41.7363 -7.40439 83.8266
lradius 22.8828
lwrist -16.6775
lhand -13.5891 -20.9302
lfingers 7.12502
lthumb 12.5253 8.67438
rfemur 2.40226 -1.81664 21.5655
rtibia 15.5943
rfoot -14.406 0.00973065
rtoes 1.40232
lfemur -4.92205 4.72578 -10.727
ltibia 63.3178
lfoot -8.82234 5.59493
ltoes 6.73424
730
root 8.76586 16.9547 9.99048 348.916 36.6393 351.416
lowerback 10.609 2.51651 3.58229
upperback 4.09594 3.79447 1.55794
thorax -1.5449 1.93644 -0.836861
lowerneck -17.4817 9.00054 12.4602
upperneck 29.288 12.8812 -10.0875
head 14.5501 5.79524 -3.79418
rclavicle -2.25621e-014 7.95139e-016
rhumerus -28.9463 -3.80362 -70.5549
rradius 31.6809
rwrist 6.20529
rhand -14.3475 -35.5697
rfingers 7.12502
rthumb 11.7941 -65.2177
lclavicle -2.25621e-014 7.95139e-016
lhumerus -42.1189 -6.917 83.1824
lradius 23.0737
lwrist -16.6172
lhand -14.3024 -21.0459
lfingers 7.12502
lthumb 11.8376 8.59948
rfemur 3.17636 -1.80148 22.2205
rtibia 15.1993
rfoot -14.6007 -0.295745
rtoes 2.46356
lfemur -6.27003 5.36341 -10.3656
ltibia 63.2728
lfoot -9.40583 5.59058
ltoes 6.04074
